<?xml version="1.0" encoding="UTF-8" standalone="no"?>
<!DOCTYPE svg PUBLIC "-//W3C//DTD SVG 1.1//EN"
 "http://www.w3.org/Graphics/SVG/1.1/DTD/svg11.dtd">
<!-- Generated by graphviz version 2.40.1 (20161225.0304)
 -->
<!-- Title: %3 Pages: 1 -->
<svg width="903pt" height="514pt"
 viewBox="0.00 0.00 903.00 514.00" xmlns="http://www.w3.org/2000/svg" xmlns:xlink="http://www.w3.org/1999/xlink">
<g id="graph0" class="graph" transform="scale(1 1) rotate(0) translate(4 510)">
<title>%3</title>
<polygon fill="#ffffff" stroke="transparent" points="-4,4 -4,-510 899,-510 899,4 -4,4"/>
<!-- JLink -->
<g id="node1" class="node">
<title>JLink</title>
<polygon fill="#ffffff" stroke="#000000" points="122,-506 0,-506 0,0 122,0 122,-506"/>
<polygon fill="none" stroke="#000000" points="0,-483 0,-506 122,-506 122,-483 0,-483"/>
<text text-anchor="start" x="43.5" y="-490.8" font-family="arial" font-size="14.00" fill="#000000">JLink</text>
<polygon fill="none" stroke="#000000" points="0,-460 0,-483 33,-483 33,-460 0,-460"/>
<text text-anchor="start" x="4" y="-467.8" font-family="arial" font-size="14.00" fill="#000000">IDC</text>
<polygon fill="none" stroke="#000000" points="33,-460 33,-483 73,-483 73,-460 33,-460"/>
<text text-anchor="start" x="37" y="-467.8" font-family="arial" font-size="14.00" fill="#000000">male</text>
<polygon fill="none" stroke="#000000" points="73,-460 73,-483 122,-483 122,-460 73,-460"/>
<text text-anchor="start" x="77" y="-467.8" font-family="arial" font-size="14.00" fill="#000000">20&#45;pin</text>
<polygon fill="none" stroke="#000000" points="0,-437 0,-460 82,-460 82,-437 0,-437"/>
<text text-anchor="start" x="23.5" y="-444.8" font-family="arial" font-size="14.00" fill="#000000">VTref</text>
<polygon fill="none" stroke="#000000" points="82,-437 82,-460 122,-460 122,-437 82,-437"/>
<text text-anchor="start" x="97.5" y="-444.8" font-family="arial" font-size="14.00" fill="#000000">1</text>
<polygon fill="none" stroke="#000000" points="0,-414 0,-437 82,-437 82,-414 0,-414"/>
<text text-anchor="start" x="30" y="-421.8" font-family="arial" font-size="14.00" fill="#000000">NC</text>
<polygon fill="none" stroke="#000000" points="82,-414 82,-437 122,-437 122,-414 82,-414"/>
<text text-anchor="start" x="97.5" y="-421.8" font-family="arial" font-size="14.00" fill="#000000">2</text>
<polygon fill="none" stroke="#000000" points="0,-391 0,-414 82,-414 82,-391 0,-391"/>
<text text-anchor="start" x="17.5" y="-398.8" font-family="arial" font-size="14.00" fill="#000000">nTRST</text>
<polygon fill="none" stroke="#000000" points="82,-391 82,-414 122,-414 122,-391 82,-391"/>
<text text-anchor="start" x="97.5" y="-398.8" font-family="arial" font-size="14.00" fill="#000000">3</text>
<polygon fill="none" stroke="#000000" points="0,-368 0,-391 82,-391 82,-368 0,-368"/>
<text text-anchor="start" x="24.5" y="-375.8" font-family="arial" font-size="14.00" fill="#000000">GND</text>
<polygon fill="none" stroke="#000000" points="82,-368 82,-391 122,-391 122,-368 82,-368"/>
<text text-anchor="start" x="97.5" y="-375.8" font-family="arial" font-size="14.00" fill="#000000">4</text>
<polygon fill="none" stroke="#000000" points="0,-345 0,-368 82,-368 82,-345 0,-345"/>
<text text-anchor="start" x="29" y="-352.8" font-family="arial" font-size="14.00" fill="#000000">TDI</text>
<polygon fill="none" stroke="#000000" points="82,-345 82,-368 122,-368 122,-345 82,-345"/>
<text text-anchor="start" x="97.5" y="-352.8" font-family="arial" font-size="14.00" fill="#000000">5</text>
<polygon fill="none" stroke="#000000" points="0,-322 0,-345 82,-345 82,-322 0,-322"/>
<text text-anchor="start" x="24.5" y="-329.8" font-family="arial" font-size="14.00" fill="#000000">GND</text>
<polygon fill="none" stroke="#000000" points="82,-322 82,-345 122,-345 122,-322 82,-322"/>
<text text-anchor="start" x="97.5" y="-329.8" font-family="arial" font-size="14.00" fill="#000000">6</text>
<polygon fill="none" stroke="#000000" points="0,-299 0,-322 82,-322 82,-299 0,-299"/>
<text text-anchor="start" x="25.5" y="-306.8" font-family="arial" font-size="14.00" fill="#000000">TMS</text>
<polygon fill="none" stroke="#000000" points="82,-299 82,-322 122,-322 122,-299 82,-299"/>
<text text-anchor="start" x="97.5" y="-306.8" font-family="arial" font-size="14.00" fill="#000000">7</text>
<polygon fill="none" stroke="#000000" points="0,-276 0,-299 82,-299 82,-276 0,-276"/>
<text text-anchor="start" x="24.5" y="-283.8" font-family="arial" font-size="14.00" fill="#000000">GND</text>
<polygon fill="none" stroke="#000000" points="82,-276 82,-299 122,-299 122,-276 82,-276"/>
<text text-anchor="start" x="97.5" y="-283.8" font-family="arial" font-size="14.00" fill="#000000">8</text>
<polygon fill="none" stroke="#000000" points="0,-253 0,-276 82,-276 82,-253 0,-253"/>
<text text-anchor="start" x="26" y="-260.8" font-family="arial" font-size="14.00" fill="#000000">TCK</text>
<polygon fill="none" stroke="#000000" points="82,-253 82,-276 122,-276 122,-253 82,-253"/>
<text text-anchor="start" x="97.5" y="-260.8" font-family="arial" font-size="14.00" fill="#000000">9</text>
<polygon fill="none" stroke="#000000" points="0,-230 0,-253 82,-253 82,-230 0,-230"/>
<text text-anchor="start" x="24.5" y="-237.8" font-family="arial" font-size="14.00" fill="#000000">GND</text>
<polygon fill="none" stroke="#000000" points="82,-230 82,-253 122,-253 122,-230 82,-230"/>
<text text-anchor="start" x="93.5" y="-237.8" font-family="arial" font-size="14.00" fill="#000000">10</text>
<polygon fill="none" stroke="#000000" points="0,-207 0,-230 82,-230 82,-207 0,-207"/>
<text text-anchor="start" x="21" y="-214.8" font-family="arial" font-size="14.00" fill="#000000">RTCK</text>
<polygon fill="none" stroke="#000000" points="82,-207 82,-230 122,-230 122,-207 82,-207"/>
<text text-anchor="start" x="94" y="-214.8" font-family="arial" font-size="14.00" fill="#000000">11</text>
<polygon fill="none" stroke="#000000" points="0,-184 0,-207 82,-207 82,-184 0,-184"/>
<text text-anchor="start" x="24.5" y="-191.8" font-family="arial" font-size="14.00" fill="#000000">GND</text>
<polygon fill="none" stroke="#000000" points="82,-184 82,-207 122,-207 122,-184 82,-184"/>
<text text-anchor="start" x="93.5" y="-191.8" font-family="arial" font-size="14.00" fill="#000000">12</text>
<polygon fill="none" stroke="#000000" points="0,-161 0,-184 82,-184 82,-161 0,-161"/>
<text text-anchor="start" x="25.5" y="-168.8" font-family="arial" font-size="14.00" fill="#000000">TDO</text>
<polygon fill="none" stroke="#000000" points="82,-161 82,-184 122,-184 122,-161 82,-161"/>
<text text-anchor="start" x="93.5" y="-168.8" font-family="arial" font-size="14.00" fill="#000000">13</text>
<polygon fill="none" stroke="#000000" points="0,-138 0,-161 82,-161 82,-138 0,-138"/>
<text text-anchor="start" x="24.5" y="-145.8" font-family="arial" font-size="14.00" fill="#000000">GND</text>
<polygon fill="none" stroke="#000000" points="82,-138 82,-161 122,-161 122,-138 82,-138"/>
<text text-anchor="start" x="93.5" y="-145.8" font-family="arial" font-size="14.00" fill="#000000">14</text>
<polygon fill="none" stroke="#000000" points="0,-115 0,-138 82,-138 82,-115 0,-115"/>
<text text-anchor="start" x="12" y="-122.8" font-family="arial" font-size="14.00" fill="#000000">nRESET</text>
<polygon fill="none" stroke="#000000" points="82,-115 82,-138 122,-138 122,-115 82,-115"/>
<text text-anchor="start" x="93.5" y="-122.8" font-family="arial" font-size="14.00" fill="#000000">15</text>
<polygon fill="none" stroke="#000000" points="0,-92 0,-115 82,-115 82,-92 0,-92"/>
<text text-anchor="start" x="24.5" y="-99.8" font-family="arial" font-size="14.00" fill="#000000">GND</text>
<polygon fill="none" stroke="#000000" points="82,-92 82,-115 122,-115 122,-92 82,-92"/>
<text text-anchor="start" x="93.5" y="-99.8" font-family="arial" font-size="14.00" fill="#000000">16</text>
<polygon fill="none" stroke="#000000" points="0,-69 0,-92 82,-92 82,-69 0,-69"/>
<text text-anchor="start" x="14" y="-76.8" font-family="arial" font-size="14.00" fill="#000000">DBGRQ</text>
<polygon fill="none" stroke="#000000" points="82,-69 82,-92 122,-92 122,-69 82,-69"/>
<text text-anchor="start" x="93.5" y="-76.8" font-family="arial" font-size="14.00" fill="#000000">17</text>
<polygon fill="none" stroke="#000000" points="0,-46 0,-69 82,-69 82,-46 0,-46"/>
<text text-anchor="start" x="24.5" y="-53.8" font-family="arial" font-size="14.00" fill="#000000">GND</text>
<polygon fill="none" stroke="#000000" points="82,-46 82,-69 122,-69 122,-46 82,-46"/>
<text text-anchor="start" x="93.5" y="-53.8" font-family="arial" font-size="14.00" fill="#000000">18</text>
<polygon fill="none" stroke="#000000" points="0,-23 0,-46 82,-46 82,-23 0,-23"/>
<text text-anchor="start" x="31.5" y="-30.8" font-family="arial" font-size="14.00" fill="#000000">5V</text>
<polygon fill="none" stroke="#000000" points="82,-23 82,-46 122,-46 122,-23 82,-23"/>
<text text-anchor="start" x="93.5" y="-30.8" font-family="arial" font-size="14.00" fill="#000000">19</text>
<polygon fill="none" stroke="#000000" points="0,0 0,-23 82,-23 82,0 0,0"/>
<text text-anchor="start" x="24.5" y="-7.8" font-family="arial" font-size="14.00" fill="#000000">GND</text>
<polygon fill="none" stroke="#000000" points="82,0 82,-23 122,-23 122,0 82,0"/>
<text text-anchor="start" x="93.5" y="-7.8" font-family="arial" font-size="14.00" fill="#000000">20</text>
</g>
<!-- W1 -->
<g id="node3" class="node">
<title>W1</title>
<polygon fill="#ffffff" stroke="#000000" points="547,-445 266,-445 266,-261 547,-261 547,-445"/>
<polygon fill="none" stroke="#000000" points="266.5,-422 266.5,-445 547.5,-445 547.5,-422 266.5,-422"/>
<text text-anchor="start" x="396" y="-429.8" font-family="arial" font-size="14.00" fill="#000000">W1</text>
<polygon fill="none" stroke="#000000" points="266.5,-399 266.5,-422 338.5,-422 338.5,-399 266.5,-399"/>
<text text-anchor="start" x="294.5" y="-406.8" font-family="arial" font-size="14.00" fill="#000000">4x</text>
<polygon fill="none" stroke="#000000" points="338.5,-399 338.5,-422 455.5,-422 455.5,-399 338.5,-399"/>
<text text-anchor="start" x="366.5" y="-406.8" font-family="arial" font-size="14.00" fill="#000000">0.25 mm²</text>
<polygon fill="none" stroke="#000000" points="455.5,-399 455.5,-422 547.5,-422 547.5,-399 455.5,-399"/>
<text text-anchor="start" x="483" y="-406.8" font-family="arial" font-size="14.00" fill="#000000">0.2 m</text>
<text text-anchor="start" x="309" y="-385.8" font-family="arial" font-size="14.00" fill="#000000"> </text>
<text text-anchor="start" x="269.5" y="-366.8" font-family="arial" font-size="14.00" fill="#000000">JLink:4:GND</text>
<text text-anchor="start" x="357.5" y="-366.8" font-family="arial" font-size="14.00" fill="#000000"> &#160;&#160;&#160;&#160;1:WH &#160;&#160;&#160;</text>
<text text-anchor="start" x="434.5" y="-366.8" font-family="arial" font-size="14.00" fill="#000000">Tinymovr:1:GND</text>
<polygon fill="#000000" stroke="transparent" points="266.5,-359 266.5,-361 547.5,-361 547.5,-359 266.5,-359"/>
<polygon fill="#ffffff" stroke="transparent" points="266.5,-357 266.5,-359 547.5,-359 547.5,-357 266.5,-357"/>
<polygon fill="#000000" stroke="transparent" points="266.5,-355 266.5,-357 547.5,-357 547.5,-355 266.5,-355"/>
<text text-anchor="start" x="270" y="-341.8" font-family="arial" font-size="14.00" fill="#000000">JLink:7:TMS</text>
<text text-anchor="start" x="359" y="-341.8" font-family="arial" font-size="14.00" fill="#000000"> &#160;&#160;&#160;&#160;2:BN &#160;&#160;&#160;</text>
<text text-anchor="start" x="438" y="-341.8" font-family="arial" font-size="14.00" fill="#000000">Tinymovr:2:DIO</text>
<polygon fill="#000000" stroke="transparent" points="266.5,-334 266.5,-336 547.5,-336 547.5,-334 266.5,-334"/>
<polygon fill="#895956" stroke="transparent" points="266.5,-332 266.5,-334 547.5,-334 547.5,-332 266.5,-332"/>
<polygon fill="#000000" stroke="transparent" points="266.5,-330 266.5,-332 547.5,-332 547.5,-330 266.5,-330"/>
<text text-anchor="start" x="271" y="-316.8" font-family="arial" font-size="14.00" fill="#000000">JLink:9:TCK</text>
<text text-anchor="start" x="358.5" y="-316.8" font-family="arial" font-size="14.00" fill="#000000"> &#160;&#160;&#160;&#160;3:GN &#160;&#160;&#160;</text>
<text text-anchor="start" x="431.5" y="-316.8" font-family="arial" font-size="14.00" fill="#000000">Tinymovr:3:SCLK</text>
<polygon fill="#000000" stroke="transparent" points="266.5,-309 266.5,-311 547.5,-311 547.5,-309 266.5,-309"/>
<polygon fill="#00ff00" stroke="transparent" points="266.5,-307 266.5,-309 547.5,-309 547.5,-307 266.5,-307"/>
<polygon fill="#000000" stroke="transparent" points="266.5,-305 266.5,-307 547.5,-307 547.5,-305 266.5,-305"/>
<text text-anchor="start" x="268.5" y="-291.8" font-family="arial" font-size="14.00" fill="#000000">JLink:1:VTref</text>
<text text-anchor="start" x="359.5" y="-291.8" font-family="arial" font-size="14.00" fill="#000000"> &#160;&#160;&#160;&#160;4:YE &#160;&#160;&#160;</text>
<text text-anchor="start" x="433.5" y="-291.8" font-family="arial" font-size="14.00" fill="#000000">Tinymovr:4:VTref</text>
<polygon fill="#000000" stroke="transparent" points="266.5,-284 266.5,-286 547.5,-286 547.5,-284 266.5,-284"/>
<polygon fill="#ffff00" stroke="transparent" points="266.5,-282 266.5,-284 547.5,-284 547.5,-282 266.5,-282"/>
<polygon fill="#000000" stroke="transparent" points="266.5,-280 266.5,-282 547.5,-282 547.5,-280 266.5,-280"/>
<text text-anchor="start" x="309" y="-266.8" font-family="arial" font-size="14.00" fill="#000000"> </text>
</g>
<!-- JLink&#45;&#45;W1 -->
<g id="edge1" class="edge">
<title>JLink:e&#45;&#45;W1:w</title>
<path fill="none" stroke="#000000" stroke-width="2" d="M122,-378C185.295,-378.8954 199.8704,-356.8954 266.5,-356"/>
<path fill="none" stroke="#ffffff" stroke-width="2" d="M122,-380C186.9623,-380 201.5377,-358 266.5,-358"/>
<path fill="none" stroke="#000000" stroke-width="2" d="M122,-382C188.6296,-381.1046 203.205,-359.1046 266.5,-360"/>
</g>
<!-- JLink&#45;&#45;W1 -->
<g id="edge3" class="edge">
<title>JLink:e&#45;&#45;W1:w</title>
<path fill="none" stroke="#000000" stroke-width="2" d="M122,-309C188.6296,-309.8954 203.205,-331.8954 266.5,-331"/>
<path fill="none" stroke="#895956" stroke-width="2" d="M122,-311C186.9623,-311 201.5377,-333 266.5,-333"/>
<path fill="none" stroke="#000000" stroke-width="2" d="M122,-313C185.295,-312.1046 199.8704,-334.1046 266.5,-335"/>
</g>
<!-- JLink&#45;&#45;W1 -->
<g id="edge5" class="edge">
<title>JLink:e&#45;&#45;W1:w</title>
<path fill="none" stroke="#000000" stroke-width="2" d="M122,-263C190.9485,-264.526 201.4376,-307.526 266.5,-306"/>
<path fill="none" stroke="#00ff00" stroke-width="2" d="M122,-265C189.0054,-265 199.4946,-308 266.5,-308"/>
<path fill="none" stroke="#000000" stroke-width="2" d="M122,-267C187.0624,-265.474 197.5515,-308.474 266.5,-310"/>
</g>
<!-- JLink&#45;&#45;W1 -->
<g id="edge7" class="edge">
<title>JLink:e&#45;&#45;W1:w</title>
<path fill="none" stroke="#000000" stroke-width="2" d="M122,-447C217.903,-449.5887 166.7742,-283.5887 266.5,-281"/>
<path fill="none" stroke="#ffff00" stroke-width="2" d="M122,-449C219.8144,-449 168.6856,-283 266.5,-283"/>
<path fill="none" stroke="#000000" stroke-width="2" d="M122,-451C221.7258,-448.4113 170.597,-282.4113 266.5,-285"/>
</g>
<!-- Tinymovr -->
<g id="node2" class="node">
<title>Tinymovr</title>
<polygon fill="#ffffff" stroke="#000000" points="895,-413 691,-413 691,-275 895,-275 895,-413"/>
<polygon fill="none" stroke="#000000" points="691,-390 691,-413 895,-413 895,-390 691,-390"/>
<text text-anchor="start" x="763" y="-397.8" font-family="arial" font-size="14.00" fill="#000000">Tinymovr</text>
<polygon fill="none" stroke="#000000" points="691,-367 691,-390 814,-390 814,-367 691,-367"/>
<text text-anchor="start" x="695" y="-374.8" font-family="arial" font-size="14.00" fill="#000000">Hirose DF13C&#45;4P</text>
<polygon fill="none" stroke="#000000" points="814,-367 814,-390 854,-390 854,-367 814,-367"/>
<text text-anchor="start" x="818" y="-374.8" font-family="arial" font-size="14.00" fill="#000000">male</text>
<polygon fill="none" stroke="#000000" points="854,-367 854,-390 895,-390 895,-367 854,-367"/>
<text text-anchor="start" x="858" y="-374.8" font-family="arial" font-size="14.00" fill="#000000">4&#45;pin</text>
<polygon fill="none" stroke="#000000" points="691,-344 691,-367 778,-367 778,-344 691,-344"/>
<text text-anchor="start" x="730" y="-351.8" font-family="arial" font-size="14.00" fill="#000000">1</text>
<polygon fill="none" stroke="#000000" points="778,-344 778,-367 895,-367 895,-344 778,-344"/>
<text text-anchor="start" x="820" y="-351.8" font-family="arial" font-size="14.00" fill="#000000">GND</text>
<polygon fill="none" stroke="#000000" points="691,-321 691,-344 778,-344 778,-321 691,-321"/>
<text text-anchor="start" x="730" y="-328.8" font-family="arial" font-size="14.00" fill="#000000">2</text>
<polygon fill="none" stroke="#000000" points="778,-321 778,-344 895,-344 895,-321 778,-321"/>
<text text-anchor="start" x="823.5" y="-328.8" font-family="arial" font-size="14.00" fill="#000000">DIO</text>
<polygon fill="none" stroke="#000000" points="691,-298 691,-321 778,-321 778,-298 691,-298"/>
<text text-anchor="start" x="730" y="-305.8" font-family="arial" font-size="14.00" fill="#000000">3</text>
<polygon fill="none" stroke="#000000" points="778,-298 778,-321 895,-321 895,-298 778,-298"/>
<text text-anchor="start" x="817" y="-305.8" font-family="arial" font-size="14.00" fill="#000000">SCLK</text>
<polygon fill="none" stroke="#000000" points="691,-275 691,-298 778,-298 778,-275 691,-275"/>
<text text-anchor="start" x="730" y="-282.8" font-family="arial" font-size="14.00" fill="#000000">4</text>
<polygon fill="none" stroke="#000000" points="778,-275 778,-298 895,-298 895,-275 778,-275"/>
<text text-anchor="start" x="819" y="-282.8" font-family="arial" font-size="14.00" fill="#000000">VTref</text>
</g>
<!-- W1&#45;&#45;Tinymovr -->
<g id="edge2" class="edge">
<title>W1:e&#45;&#45;Tinymovr:w</title>
<path fill="none" stroke="#000000" stroke-width="2" d="M547,-356C610.7579,-356.0155 626.7456,-354.0155 691,-354"/>
<path fill="none" stroke="#ffffff" stroke-width="2" d="M547,-358C611.0062,-358 626.9938,-356 691,-356"/>
<path fill="none" stroke="#000000" stroke-width="2" d="M547,-360C611.2544,-359.9845 627.2421,-357.9845 691,-358"/>
</g>
<!-- W1&#45;&#45;Tinymovr -->
<g id="edge4" class="edge">
<title>W1:e&#45;&#45;Tinymovr:w</title>
<path fill="none" stroke="#000000" stroke-width="2" d="M547,-331C610.8768,-331.0039 626.8737,-330.0039 691,-330"/>
<path fill="none" stroke="#895956" stroke-width="2" d="M547,-333C611.0015,-333 626.9985,-332 691,-332"/>
<path fill="none" stroke="#000000" stroke-width="2" d="M547,-335C611.1263,-334.9961 627.1232,-333.9961 691,-334"/>
</g>
<!-- W1&#45;&#45;Tinymovr -->
<g id="edge6" class="edge">
<title>W1:e&#45;&#45;Tinymovr:w</title>
<path fill="none" stroke="#000000" stroke-width="2" d="M547,-306C611.1263,-306.0039 627.1232,-307.0039 691,-307"/>
<path fill="none" stroke="#00ff00" stroke-width="2" d="M547,-308C611.0015,-308 626.9985,-309 691,-309"/>
<path fill="none" stroke="#000000" stroke-width="2" d="M547,-310C610.8768,-309.9961 626.8737,-310.9961 691,-311"/>
</g>
<!-- W1&#45;&#45;Tinymovr -->
<g id="edge8" class="edge">
<title>W1:e&#45;&#45;Tinymovr:w</title>
<path fill="none" stroke="#000000" stroke-width="2" d="M547,-281C611.3831,-281.0344 627.3553,-284.0344 691,-284"/>
<path fill="none" stroke="#ffff00" stroke-width="2" d="M547,-283C611.0139,-283 626.9861,-286 691,-286"/>
<path fill="none" stroke="#000000" stroke-width="2" d="M547,-285C610.6447,-284.9656 626.6169,-287.9656 691,-288"/>
</g>
</g>
</svg>
