<?xml version="1.0" encoding="UTF-8" standalone="no"?>
<!DOCTYPE svg PUBLIC "-//W3C//DTD SVG 1.1//EN"
 "http://www.w3.org/Graphics/SVG/1.1/DTD/svg11.dtd">
<!-- Generated by graphviz version 2.49.2 (20211016.1639)
 -->
<!-- Pages: 1 -->
<svg width="898pt" height="514pt"
 viewBox="0.00 0.00 898.00 514.00" xmlns="http://www.w3.org/2000/svg" xmlns:xlink="http://www.w3.org/1999/xlink">
<g id="graph0" class="graph" transform="scale(1 1) rotate(0) translate(4 510)">
<polygon fill="#ffffff" stroke="transparent" points="-4,4 -4,-510 894,-510 894,4 -4,4"/>
<!-- JLink -->
<g id="node1" class="node">
<title>JLink</title>
<polygon fill="#ffffff" stroke="black" points="121,-506 0,-506 0,0 121,0 121,-506"/>
<polygon fill="none" stroke="black" points="0.5,-483 0.5,-506 121.5,-506 121.5,-483 0.5,-483"/>
<text text-anchor="start" x="44" y="-490.8" font-family="arial" font-size="14.00">JLink</text>
<polygon fill="none" stroke="black" points="0.5,-460 0.5,-483 34.5,-483 34.5,-460 0.5,-460"/>
<text text-anchor="start" x="4.5" y="-467.8" font-family="arial" font-size="14.00">IDC</text>
<polygon fill="none" stroke="black" points="34.5,-460 34.5,-483 73.5,-483 73.5,-460 34.5,-460"/>
<text text-anchor="start" x="38.5" y="-467.8" font-family="arial" font-size="14.00">male</text>
<polygon fill="none" stroke="black" points="73.5,-460 73.5,-483 121.5,-483 121.5,-460 73.5,-460"/>
<text text-anchor="start" x="77.5" y="-467.8" font-family="arial" font-size="14.00">20&#45;pin</text>
<polygon fill="none" stroke="black" points="0.5,-437 0.5,-460 81.5,-460 81.5,-437 0.5,-437"/>
<text text-anchor="start" x="22.5" y="-444.8" font-family="arial" font-size="14.00">VTref</text>
<polygon fill="none" stroke="black" points="81.5,-437 81.5,-460 121.5,-460 121.5,-437 81.5,-437"/>
<text text-anchor="start" x="97" y="-444.8" font-family="arial" font-size="14.00">1</text>
<polygon fill="none" stroke="black" points="0.5,-414 0.5,-437 81.5,-437 81.5,-414 0.5,-414"/>
<text text-anchor="start" x="30.5" y="-421.8" font-family="arial" font-size="14.00">NC</text>
<polygon fill="none" stroke="black" points="81.5,-414 81.5,-437 121.5,-437 121.5,-414 81.5,-414"/>
<text text-anchor="start" x="97" y="-421.8" font-family="arial" font-size="14.00">2</text>
<polygon fill="none" stroke="black" points="0.5,-391 0.5,-414 81.5,-414 81.5,-391 0.5,-391"/>
<text text-anchor="start" x="18" y="-398.8" font-family="arial" font-size="14.00">nTRST</text>
<polygon fill="none" stroke="black" points="81.5,-391 81.5,-414 121.5,-414 121.5,-391 81.5,-391"/>
<text text-anchor="start" x="97" y="-398.8" font-family="arial" font-size="14.00">3</text>
<polygon fill="none" stroke="black" points="0.5,-368 0.5,-391 81.5,-391 81.5,-368 0.5,-368"/>
<text text-anchor="start" x="25" y="-375.8" font-family="arial" font-size="14.00">GND</text>
<polygon fill="none" stroke="black" points="81.5,-368 81.5,-391 121.5,-391 121.5,-368 81.5,-368"/>
<text text-anchor="start" x="97" y="-375.8" font-family="arial" font-size="14.00">4</text>
<polygon fill="none" stroke="black" points="0.5,-345 0.5,-368 81.5,-368 81.5,-345 0.5,-345"/>
<text text-anchor="start" x="28.5" y="-352.8" font-family="arial" font-size="14.00">TDI</text>
<polygon fill="none" stroke="black" points="81.5,-345 81.5,-368 121.5,-368 121.5,-345 81.5,-345"/>
<text text-anchor="start" x="97" y="-352.8" font-family="arial" font-size="14.00">5</text>
<polygon fill="none" stroke="black" points="0.5,-322 0.5,-345 81.5,-345 81.5,-322 0.5,-322"/>
<text text-anchor="start" x="25" y="-329.8" font-family="arial" font-size="14.00">GND</text>
<polygon fill="none" stroke="black" points="81.5,-322 81.5,-345 121.5,-345 121.5,-322 81.5,-322"/>
<text text-anchor="start" x="97" y="-329.8" font-family="arial" font-size="14.00">6</text>
<polygon fill="none" stroke="black" points="0.5,-299 0.5,-322 81.5,-322 81.5,-299 0.5,-299"/>
<text text-anchor="start" x="25.5" y="-306.8" font-family="arial" font-size="14.00">TMS</text>
<polygon fill="none" stroke="black" points="81.5,-299 81.5,-322 121.5,-322 121.5,-299 81.5,-299"/>
<text text-anchor="start" x="97" y="-306.8" font-family="arial" font-size="14.00">7</text>
<polygon fill="none" stroke="black" points="0.5,-276 0.5,-299 81.5,-299 81.5,-276 0.5,-276"/>
<text text-anchor="start" x="25" y="-283.8" font-family="arial" font-size="14.00">GND</text>
<polygon fill="none" stroke="black" points="81.5,-276 81.5,-299 121.5,-299 121.5,-276 81.5,-276"/>
<text text-anchor="start" x="97" y="-283.8" font-family="arial" font-size="14.00">8</text>
<polygon fill="none" stroke="black" points="0.5,-253 0.5,-276 81.5,-276 81.5,-253 0.5,-253"/>
<text text-anchor="start" x="26" y="-260.8" font-family="arial" font-size="14.00">TCK</text>
<polygon fill="none" stroke="black" points="81.5,-253 81.5,-276 121.5,-276 121.5,-253 81.5,-253"/>
<text text-anchor="start" x="97" y="-260.8" font-family="arial" font-size="14.00">9</text>
<polygon fill="none" stroke="black" points="0.5,-230 0.5,-253 81.5,-253 81.5,-230 0.5,-230"/>
<text text-anchor="start" x="25" y="-237.8" font-family="arial" font-size="14.00">GND</text>
<polygon fill="none" stroke="black" points="81.5,-230 81.5,-253 121.5,-253 121.5,-230 81.5,-230"/>
<text text-anchor="start" x="93" y="-237.8" font-family="arial" font-size="14.00">10</text>
<polygon fill="none" stroke="black" points="0.5,-207 0.5,-230 81.5,-230 81.5,-207 0.5,-207"/>
<text text-anchor="start" x="21" y="-214.8" font-family="arial" font-size="14.00">RTCK</text>
<polygon fill="none" stroke="black" points="81.5,-207 81.5,-230 121.5,-230 121.5,-207 81.5,-207"/>
<text text-anchor="start" x="93" y="-214.8" font-family="arial" font-size="14.00">11</text>
<polygon fill="none" stroke="black" points="0.5,-184 0.5,-207 81.5,-207 81.5,-184 0.5,-184"/>
<text text-anchor="start" x="25" y="-191.8" font-family="arial" font-size="14.00">GND</text>
<polygon fill="none" stroke="black" points="81.5,-184 81.5,-207 121.5,-207 121.5,-184 81.5,-184"/>
<text text-anchor="start" x="93" y="-191.8" font-family="arial" font-size="14.00">12</text>
<polygon fill="none" stroke="black" points="0.5,-161 0.5,-184 81.5,-184 81.5,-161 0.5,-161"/>
<text text-anchor="start" x="25.5" y="-168.8" font-family="arial" font-size="14.00">TDO</text>
<polygon fill="none" stroke="black" points="81.5,-161 81.5,-184 121.5,-184 121.5,-161 81.5,-161"/>
<text text-anchor="start" x="93" y="-168.8" font-family="arial" font-size="14.00">13</text>
<polygon fill="none" stroke="black" points="0.5,-138 0.5,-161 81.5,-161 81.5,-138 0.5,-138"/>
<text text-anchor="start" x="25" y="-145.8" font-family="arial" font-size="14.00">GND</text>
<polygon fill="none" stroke="black" points="81.5,-138 81.5,-161 121.5,-161 121.5,-138 81.5,-138"/>
<text text-anchor="start" x="93" y="-145.8" font-family="arial" font-size="14.00">14</text>
<polygon fill="none" stroke="black" points="0.5,-115 0.5,-138 81.5,-138 81.5,-115 0.5,-115"/>
<text text-anchor="start" x="12.5" y="-122.8" font-family="arial" font-size="14.00">nRESET</text>
<polygon fill="none" stroke="black" points="81.5,-115 81.5,-138 121.5,-138 121.5,-115 81.5,-115"/>
<text text-anchor="start" x="93" y="-122.8" font-family="arial" font-size="14.00">15</text>
<polygon fill="none" stroke="black" points="0.5,-92 0.5,-115 81.5,-115 81.5,-92 0.5,-92"/>
<text text-anchor="start" x="25" y="-99.8" font-family="arial" font-size="14.00">GND</text>
<polygon fill="none" stroke="black" points="81.5,-92 81.5,-115 121.5,-115 121.5,-92 81.5,-92"/>
<text text-anchor="start" x="93" y="-99.8" font-family="arial" font-size="14.00">16</text>
<polygon fill="none" stroke="black" points="0.5,-69 0.5,-92 81.5,-92 81.5,-69 0.5,-69"/>
<text text-anchor="start" x="14" y="-76.8" font-family="arial" font-size="14.00">DBGRQ</text>
<polygon fill="none" stroke="black" points="81.5,-69 81.5,-92 121.5,-92 121.5,-69 81.5,-69"/>
<text text-anchor="start" x="93" y="-76.8" font-family="arial" font-size="14.00">17</text>
<polygon fill="none" stroke="black" points="0.5,-46 0.5,-69 81.5,-69 81.5,-46 0.5,-46"/>
<text text-anchor="start" x="25" y="-53.8" font-family="arial" font-size="14.00">GND</text>
<polygon fill="none" stroke="black" points="81.5,-46 81.5,-69 121.5,-69 121.5,-46 81.5,-46"/>
<text text-anchor="start" x="93" y="-53.8" font-family="arial" font-size="14.00">18</text>
<polygon fill="none" stroke="black" points="0.5,-23 0.5,-46 81.5,-46 81.5,-23 0.5,-23"/>
<text text-anchor="start" x="31.5" y="-30.8" font-family="arial" font-size="14.00">5V</text>
<polygon fill="none" stroke="black" points="81.5,-23 81.5,-46 121.5,-46 121.5,-23 81.5,-23"/>
<text text-anchor="start" x="93" y="-30.8" font-family="arial" font-size="14.00">19</text>
<polygon fill="none" stroke="black" points="0.5,0 0.5,-23 81.5,-23 81.5,0 0.5,0"/>
<text text-anchor="start" x="25" y="-7.8" font-family="arial" font-size="14.00">GND</text>
<polygon fill="none" stroke="black" points="81.5,0 81.5,-23 121.5,-23 121.5,0 81.5,0"/>
<text text-anchor="start" x="93" y="-7.8" font-family="arial" font-size="14.00">20</text>
</g>
<!-- W1 -->
<g id="node3" class="node">
<title>W1</title>
<polygon fill="#ffffff" stroke="black" points="544,-445 265,-445 265,-261 544,-261 544,-445"/>
<polygon fill="none" stroke="black" points="265.5,-422 265.5,-445 544.5,-445 544.5,-422 265.5,-422"/>
<text text-anchor="start" x="393.5" y="-429.8" font-family="arial" font-size="14.00">W1</text>
<polygon fill="none" stroke="black" points="265.5,-399 265.5,-422 336.5,-422 336.5,-399 265.5,-399"/>
<text text-anchor="start" x="293" y="-406.8" font-family="arial" font-size="14.00">4x</text>
<polygon fill="none" stroke="black" points="336.5,-399 336.5,-422 452.5,-422 452.5,-399 336.5,-399"/>
<text text-anchor="start" x="364" y="-406.8" font-family="arial" font-size="14.00">0.25 mm²</text>
<polygon fill="none" stroke="black" points="452.5,-399 452.5,-422 544.5,-422 544.5,-399 452.5,-399"/>
<text text-anchor="start" x="480" y="-406.8" font-family="arial" font-size="14.00">0.2 m</text>
<text text-anchor="start" x="308" y="-385.8" font-family="arial" font-size="14.00"> </text>
<text text-anchor="start" x="269.5" y="-366.8" font-family="arial" font-size="14.00">JLink:4:GND</text>
<text text-anchor="start" x="356.5" y="-366.8" font-family="arial" font-size="14.00"> &#160;&#160;&#160;&#160;1:WH &#160;&#160;&#160;</text>
<text text-anchor="start" x="433.5" y="-366.8" font-family="arial" font-size="14.00">Tinymovr:1:GND</text>
<polygon fill="#000000" stroke="transparent" points="265.5,-359 265.5,-361 544.5,-361 544.5,-359 265.5,-359"/>
<polygon fill="#ffffff" stroke="transparent" points="265.5,-357 265.5,-359 544.5,-359 544.5,-357 265.5,-357"/>
<polygon fill="#000000" stroke="transparent" points="265.5,-355 265.5,-357 544.5,-357 544.5,-355 265.5,-355"/>
<text text-anchor="start" x="270.5" y="-341.8" font-family="arial" font-size="14.00">JLink:7:TMS</text>
<text text-anchor="start" x="358.5" y="-341.8" font-family="arial" font-size="14.00"> &#160;&#160;&#160;&#160;2:BN &#160;&#160;&#160;</text>
<text text-anchor="start" x="436.5" y="-341.8" font-family="arial" font-size="14.00">Tinymovr:2:DIO</text>
<polygon fill="#000000" stroke="transparent" points="265.5,-334 265.5,-336 544.5,-336 544.5,-334 265.5,-334"/>
<polygon fill="#895956" stroke="transparent" points="265.5,-332 265.5,-334 544.5,-334 544.5,-332 265.5,-332"/>
<polygon fill="#000000" stroke="transparent" points="265.5,-330 265.5,-332 544.5,-332 544.5,-330 265.5,-330"/>
<text text-anchor="start" x="270.5" y="-316.8" font-family="arial" font-size="14.00">JLink:9:TCK</text>
<text text-anchor="start" x="358" y="-316.8" font-family="arial" font-size="14.00"> &#160;&#160;&#160;&#160;3:GN &#160;&#160;&#160;</text>
<text text-anchor="start" x="430.5" y="-316.8" font-family="arial" font-size="14.00">Tinymovr:3:SCLK</text>
<polygon fill="#000000" stroke="transparent" points="265.5,-309 265.5,-311 544.5,-311 544.5,-309 265.5,-309"/>
<polygon fill="#00ff00" stroke="transparent" points="265.5,-307 265.5,-309 544.5,-309 544.5,-307 265.5,-307"/>
<polygon fill="#000000" stroke="transparent" points="265.5,-305 265.5,-307 544.5,-307 544.5,-305 265.5,-305"/>
<text text-anchor="start" x="267.5" y="-291.8" font-family="arial" font-size="14.00">JLink:1:VTref</text>
<text text-anchor="start" x="359" y="-291.8" font-family="arial" font-size="14.00"> &#160;&#160;&#160;&#160;4:YE &#160;&#160;&#160;</text>
<text text-anchor="start" x="431.5" y="-291.8" font-family="arial" font-size="14.00">Tinymovr:4:VTref</text>
<polygon fill="#000000" stroke="transparent" points="265.5,-284 265.5,-286 544.5,-286 544.5,-284 265.5,-284"/>
<polygon fill="#ffff00" stroke="transparent" points="265.5,-282 265.5,-284 544.5,-284 544.5,-282 265.5,-282"/>
<polygon fill="#000000" stroke="transparent" points="265.5,-280 265.5,-282 544.5,-282 544.5,-280 265.5,-280"/>
<text text-anchor="start" x="308" y="-266.8" font-family="arial" font-size="14.00"> </text>
</g>
<!-- JLink&#45;&#45;W1 -->
<g id="edge1" class="edge">
<title>JLink:e&#45;&#45;W1:w</title>
<path fill="none" stroke="#000000" stroke-width="2" d="M121,-378C184.07,-378.9 198.59,-356.9 265,-356"/>
<path fill="none" stroke="#ffffff" stroke-width="2" d="M121,-380C185.74,-380 200.26,-358 265,-358"/>
<path fill="none" stroke="#000000" stroke-width="2" d="M121,-382C187.41,-381.1 201.93,-359.1 265,-360"/>
</g>
<!-- JLink&#45;&#45;W1 -->
<g id="edge3" class="edge">
<title>JLink:e&#45;&#45;W1:w</title>
<path fill="none" stroke="#000000" stroke-width="2" d="M121,-309C187.41,-309.9 201.93,-331.9 265,-331"/>
<path fill="none" stroke="#895956" stroke-width="2" d="M121,-311C185.74,-311 200.26,-333 265,-333"/>
<path fill="none" stroke="#000000" stroke-width="2" d="M121,-313C184.07,-312.1 198.59,-334.1 265,-335"/>
</g>
<!-- JLink&#45;&#45;W1 -->
<g id="edge5" class="edge">
<title>JLink:e&#45;&#45;W1:w</title>
<path fill="none" stroke="#000000" stroke-width="2" d="M121,-263C189.74,-264.53 200.15,-307.53 265,-306"/>
<path fill="none" stroke="#00ff00" stroke-width="2" d="M121,-265C187.79,-265 198.21,-308 265,-308"/>
<path fill="none" stroke="#000000" stroke-width="2" d="M121,-267C185.85,-265.47 196.26,-308.47 265,-310"/>
</g>
<!-- JLink&#45;&#45;W1 -->
<g id="edge7" class="edge">
<title>JLink:e&#45;&#45;W1:w</title>
<path fill="none" stroke="#000000" stroke-width="2" d="M121,-447C216.76,-449.59 165.42,-283.59 265,-281"/>
<path fill="none" stroke="#ffff00" stroke-width="2" d="M121,-449C218.67,-449 167.33,-283 265,-283"/>
<path fill="none" stroke="#000000" stroke-width="2" d="M121,-451C220.58,-448.41 169.24,-282.41 265,-285"/>
</g>
<!-- Tinymovr -->
<g id="node2" class="node">
<title>Tinymovr</title>
<polygon fill="#ffffff" stroke="black" points="890,-413 688,-413 688,-275 890,-275 890,-413"/>
<polygon fill="none" stroke="black" points="688,-390 688,-413 890,-413 890,-390 688,-390"/>
<text text-anchor="start" x="760" y="-397.8" font-family="arial" font-size="14.00">Tinymovr</text>
<polygon fill="none" stroke="black" points="688,-367 688,-390 811,-390 811,-367 688,-367"/>
<text text-anchor="start" x="692" y="-374.8" font-family="arial" font-size="14.00">Hirose DF13C&#45;4P</text>
<polygon fill="none" stroke="black" points="811,-367 811,-390 850,-390 850,-367 811,-367"/>
<text text-anchor="start" x="815" y="-374.8" font-family="arial" font-size="14.00">male</text>
<polygon fill="none" stroke="black" points="850,-367 850,-390 890,-390 890,-367 850,-367"/>
<text text-anchor="start" x="854" y="-374.8" font-family="arial" font-size="14.00">4&#45;pin</text>
<polygon fill="none" stroke="black" points="688,-344 688,-367 774,-367 774,-344 688,-344"/>
<text text-anchor="start" x="726.5" y="-351.8" font-family="arial" font-size="14.00">1</text>
<polygon fill="none" stroke="black" points="774,-344 774,-367 890,-367 890,-344 774,-344"/>
<text text-anchor="start" x="816" y="-351.8" font-family="arial" font-size="14.00">GND</text>
<polygon fill="none" stroke="black" points="688,-321 688,-344 774,-344 774,-321 688,-321"/>
<text text-anchor="start" x="726.5" y="-328.8" font-family="arial" font-size="14.00">2</text>
<polygon fill="none" stroke="black" points="774,-321 774,-344 890,-344 890,-321 774,-321"/>
<text text-anchor="start" x="818.5" y="-328.8" font-family="arial" font-size="14.00">DIO</text>
<polygon fill="none" stroke="black" points="688,-298 688,-321 774,-321 774,-298 688,-298"/>
<text text-anchor="start" x="726.5" y="-305.8" font-family="arial" font-size="14.00">3</text>
<polygon fill="none" stroke="black" points="774,-298 774,-321 890,-321 890,-298 774,-298"/>
<text text-anchor="start" x="812.5" y="-305.8" font-family="arial" font-size="14.00">SCLK</text>
<polygon fill="none" stroke="black" points="688,-275 688,-298 774,-298 774,-275 688,-275"/>
<text text-anchor="start" x="726.5" y="-282.8" font-family="arial" font-size="14.00">4</text>
<polygon fill="none" stroke="black" points="774,-275 774,-298 890,-298 890,-275 774,-275"/>
<text text-anchor="start" x="813.5" y="-282.8" font-family="arial" font-size="14.00">VTref</text>
</g>
<!-- W1&#45;&#45;Tinymovr -->
<g id="edge2" class="edge">
<title>W1:e&#45;&#45;Tinymovr:w</title>
<path fill="none" stroke="#000000" stroke-width="2" d="M544,-356C607.76,-356.02 623.75,-354.02 688,-354"/>
<path fill="none" stroke="#ffffff" stroke-width="2" d="M544,-358C608.01,-358 623.99,-356 688,-356"/>
<path fill="none" stroke="#000000" stroke-width="2" d="M544,-360C608.25,-359.98 624.24,-357.98 688,-358"/>
</g>
<!-- W1&#45;&#45;Tinymovr -->
<g id="edge4" class="edge">
<title>W1:e&#45;&#45;Tinymovr:w</title>
<path fill="none" stroke="#000000" stroke-width="2" d="M544,-331C607.88,-331 623.87,-330 688,-330"/>
<path fill="none" stroke="#895956" stroke-width="2" d="M544,-333C608,-333 624,-332 688,-332"/>
<path fill="none" stroke="#000000" stroke-width="2" d="M544,-335C608.13,-335 624.12,-334 688,-334"/>
</g>
<!-- W1&#45;&#45;Tinymovr -->
<g id="edge6" class="edge">
<title>W1:e&#45;&#45;Tinymovr:w</title>
<path fill="none" stroke="#000000" stroke-width="2" d="M544,-306C608.13,-306 624.12,-307 688,-307"/>
<path fill="none" stroke="#00ff00" stroke-width="2" d="M544,-308C608,-308 624,-309 688,-309"/>
<path fill="none" stroke="#000000" stroke-width="2" d="M544,-310C607.88,-310 623.87,-311 688,-311"/>
</g>
<!-- W1&#45;&#45;Tinymovr -->
<g id="edge8" class="edge">
<title>W1:e&#45;&#45;Tinymovr:w</title>
<path fill="none" stroke="#000000" stroke-width="2" d="M544,-281C608.38,-281.03 624.36,-284.03 688,-284"/>
<path fill="none" stroke="#ffff00" stroke-width="2" d="M544,-283C608.01,-283 623.99,-286 688,-286"/>
<path fill="none" stroke="#000000" stroke-width="2" d="M544,-285C607.64,-284.97 623.62,-287.97 688,-288"/>
</g>
</g>
</svg>
