<?xml version="1.0" encoding="UTF-8" standalone="no"?>
<!DOCTYPE svg PUBLIC "-//W3C//DTD SVG 1.1//EN"
 "http://www.w3.org/Graphics/SVG/1.1/DTD/svg11.dtd">
<!-- Generated by graphviz version 2.49.2 (20211016.1639)
 -->
<!-- Pages: 1 -->
<svg width="971pt" height="192pt"
 viewBox="0.00 0.00 971.00 192.00" xmlns="http://www.w3.org/2000/svg" xmlns:xlink="http://www.w3.org/1999/xlink">
<g id="graph0" class="graph" transform="scale(1 1) rotate(0) translate(4 188)">
<polygon fill="#ffffff" stroke="transparent" points="-4,4 -4,-188 967,-188 967,4 -4,4"/>
<!-- SWD -->
<g id="node1" class="node">
<title>SWD</title>
<polygon fill="#ffffff" stroke="black" points="190,-152 0,-152 0,-14 190,-14 190,-152"/>
<polygon fill="none" stroke="black" points="0,-129 0,-152 190,-152 190,-129 0,-129"/>
<text text-anchor="start" x="77.5" y="-136.8" font-family="arial" font-size="14.00">SWD</text>
<polygon fill="none" stroke="black" points="0,-106 0,-129 111,-129 111,-106 0,-106"/>
<text text-anchor="start" x="4" y="-113.8" font-family="arial" font-size="14.00">Dupont 2.54mm</text>
<polygon fill="none" stroke="black" points="111,-106 111,-129 150,-129 150,-106 111,-106"/>
<text text-anchor="start" x="115" y="-113.8" font-family="arial" font-size="14.00">male</text>
<polygon fill="none" stroke="black" points="150,-106 150,-129 190,-129 190,-106 150,-106"/>
<text text-anchor="start" x="154" y="-113.8" font-family="arial" font-size="14.00">4&#45;pin</text>
<polygon fill="none" stroke="black" points="0,-83 0,-106 110,-106 110,-83 0,-83"/>
<text text-anchor="start" x="39" y="-90.8" font-family="arial" font-size="14.00">GND</text>
<polygon fill="none" stroke="black" points="110,-83 110,-106 190,-106 190,-83 110,-83"/>
<text text-anchor="start" x="145.5" y="-90.8" font-family="arial" font-size="14.00">1</text>
<polygon fill="none" stroke="black" points="0,-60 0,-83 110,-83 110,-60 0,-60"/>
<text text-anchor="start" x="35.5" y="-67.8" font-family="arial" font-size="14.00">SCLK</text>
<polygon fill="none" stroke="black" points="110,-60 110,-83 190,-83 190,-60 110,-60"/>
<text text-anchor="start" x="145.5" y="-67.8" font-family="arial" font-size="14.00">2</text>
<polygon fill="none" stroke="black" points="0,-37 0,-60 110,-60 110,-37 0,-37"/>
<text text-anchor="start" x="41.5" y="-44.8" font-family="arial" font-size="14.00">DIO</text>
<polygon fill="none" stroke="black" points="110,-37 110,-60 190,-60 190,-37 110,-37"/>
<text text-anchor="start" x="145.5" y="-44.8" font-family="arial" font-size="14.00">3</text>
<polygon fill="none" stroke="black" points="0,-14 0,-37 110,-37 110,-14 0,-14"/>
<text text-anchor="start" x="36.5" y="-21.8" font-family="arial" font-size="14.00">VTref</text>
<polygon fill="none" stroke="black" points="110,-14 110,-37 190,-37 190,-14 110,-14"/>
<text text-anchor="start" x="145.5" y="-21.8" font-family="arial" font-size="14.00">4</text>
</g>
<!-- W1 -->
<g id="node3" class="node">
<title>W1</title>
<polygon fill="#ffffff" stroke="black" points="617,-184 334,-184 334,0 617,0 617,-184"/>
<polygon fill="none" stroke="black" points="334.5,-161 334.5,-184 617.5,-184 617.5,-161 334.5,-161"/>
<text text-anchor="start" x="464.5" y="-168.8" font-family="arial" font-size="14.00">W1</text>
<polygon fill="none" stroke="black" points="334.5,-138 334.5,-161 407.5,-161 407.5,-138 334.5,-138"/>
<text text-anchor="start" x="363" y="-145.8" font-family="arial" font-size="14.00">4x</text>
<polygon fill="none" stroke="black" points="407.5,-138 407.5,-161 524.5,-161 524.5,-138 407.5,-138"/>
<text text-anchor="start" x="435.5" y="-145.8" font-family="arial" font-size="14.00">0.25 mm²</text>
<polygon fill="none" stroke="black" points="524.5,-138 524.5,-161 617.5,-161 617.5,-138 524.5,-138"/>
<text text-anchor="start" x="552.5" y="-145.8" font-family="arial" font-size="14.00">0.2 m</text>
<text text-anchor="start" x="379" y="-124.8" font-family="arial" font-size="14.00"> </text>
<text text-anchor="start" x="340" y="-105.8" font-family="arial" font-size="14.00">SWD:1:GND</text>
<text text-anchor="start" x="429.5" y="-105.8" font-family="arial" font-size="14.00"> &#160;&#160;&#160;&#160;1:WH &#160;&#160;&#160;</text>
<text text-anchor="start" x="506.5" y="-105.8" font-family="arial" font-size="14.00">Tinymovr:1:GND</text>
<polygon fill="#000000" stroke="transparent" points="334.5,-98 334.5,-100 617.5,-100 617.5,-98 334.5,-98"/>
<polygon fill="#ffffff" stroke="transparent" points="334.5,-96 334.5,-98 617.5,-98 617.5,-96 334.5,-96"/>
<polygon fill="#000000" stroke="transparent" points="334.5,-94 334.5,-96 617.5,-96 617.5,-94 334.5,-94"/>
<text text-anchor="start" x="342.5" y="-80.8" font-family="arial" font-size="14.00">SWD:3:DIO</text>
<text text-anchor="start" x="431.5" y="-80.8" font-family="arial" font-size="14.00"> &#160;&#160;&#160;&#160;2:BN &#160;&#160;&#160;</text>
<text text-anchor="start" x="509.5" y="-80.8" font-family="arial" font-size="14.00">Tinymovr:2:DIO</text>
<polygon fill="#000000" stroke="transparent" points="334.5,-73 334.5,-75 617.5,-75 617.5,-73 334.5,-73"/>
<polygon fill="#895956" stroke="transparent" points="334.5,-71 334.5,-73 617.5,-73 617.5,-71 334.5,-71"/>
<polygon fill="#000000" stroke="transparent" points="334.5,-69 334.5,-71 617.5,-71 617.5,-69 334.5,-69"/>
<text text-anchor="start" x="336.5" y="-55.8" font-family="arial" font-size="14.00">SWD:2:SCLK</text>
<text text-anchor="start" x="431" y="-55.8" font-family="arial" font-size="14.00"> &#160;&#160;&#160;&#160;3:GN &#160;&#160;&#160;</text>
<text text-anchor="start" x="503.5" y="-55.8" font-family="arial" font-size="14.00">Tinymovr:3:SCLK</text>
<polygon fill="#000000" stroke="transparent" points="334.5,-48 334.5,-50 617.5,-50 617.5,-48 334.5,-48"/>
<polygon fill="#00ff00" stroke="transparent" points="334.5,-46 334.5,-48 617.5,-48 617.5,-46 334.5,-46"/>
<polygon fill="#000000" stroke="transparent" points="334.5,-44 334.5,-46 617.5,-46 617.5,-44 334.5,-44"/>
<text text-anchor="start" x="337.5" y="-30.8" font-family="arial" font-size="14.00">SWD:4:VTref</text>
<text text-anchor="start" x="432" y="-30.8" font-family="arial" font-size="14.00"> &#160;&#160;&#160;&#160;4:YE &#160;&#160;&#160;</text>
<text text-anchor="start" x="504.5" y="-30.8" font-family="arial" font-size="14.00">Tinymovr:4:VTref</text>
<polygon fill="#000000" stroke="transparent" points="334.5,-23 334.5,-25 617.5,-25 617.5,-23 334.5,-23"/>
<polygon fill="#ffff00" stroke="transparent" points="334.5,-21 334.5,-23 617.5,-23 617.5,-21 334.5,-21"/>
<polygon fill="#000000" stroke="transparent" points="334.5,-19 334.5,-21 617.5,-21 617.5,-19 334.5,-19"/>
<text text-anchor="start" x="379" y="-5.8" font-family="arial" font-size="14.00"> </text>
</g>
<!-- SWD&#45;&#45;W1 -->
<g id="edge1" class="edge">
<title>SWD:e&#45;&#45;W1:w</title>
<path fill="none" stroke="#000000" stroke-width="2" d="M190,-93C254.25,-93.02 270.24,-95.02 334,-95"/>
<path fill="none" stroke="#ffffff" stroke-width="2" d="M190,-95C254.01,-95 269.99,-97 334,-97"/>
<path fill="none" stroke="#000000" stroke-width="2" d="M190,-97C253.76,-96.98 269.75,-98.98 334,-99"/>
</g>
<!-- SWD&#45;&#45;W1 -->
<g id="edge3" class="edge">
<title>SWD:e&#45;&#45;W1:w</title>
<path fill="none" stroke="#000000" stroke-width="2" d="M190,-46C256.6,-46.98 270.84,-70.98 334,-70"/>
<path fill="none" stroke="#895956" stroke-width="2" d="M190,-48C254.88,-48 269.12,-72 334,-72"/>
<path fill="none" stroke="#000000" stroke-width="2" d="M190,-50C253.16,-49.02 267.4,-73.02 334,-74"/>
</g>
<!-- SWD&#45;&#45;W1 -->
<g id="edge5" class="edge">
<title>SWD:e&#45;&#45;W1:w</title>
<path fill="none" stroke="#000000" stroke-width="2" d="M190,-69C253.16,-69.98 267.4,-45.98 334,-45"/>
<path fill="none" stroke="#00ff00" stroke-width="2" d="M190,-71C254.88,-71 269.12,-47 334,-47"/>
<path fill="none" stroke="#000000" stroke-width="2" d="M190,-73C256.6,-72.02 270.84,-48.02 334,-49"/>
</g>
<!-- SWD&#45;&#45;W1 -->
<g id="edge7" class="edge">
<title>SWD:e&#45;&#45;W1:w</title>
<path fill="none" stroke="#000000" stroke-width="2" d="M190,-23C253.64,-23.03 269.62,-20.03 334,-20"/>
<path fill="none" stroke="#ffff00" stroke-width="2" d="M190,-25C254.01,-25 269.99,-22 334,-22"/>
<path fill="none" stroke="#000000" stroke-width="2" d="M190,-27C254.38,-26.97 270.36,-23.97 334,-24"/>
</g>
<!-- Tinymovr -->
<g id="node2" class="node">
<title>Tinymovr</title>
<polygon fill="#ffffff" stroke="black" points="963,-152 761,-152 761,-14 963,-14 963,-152"/>
<polygon fill="none" stroke="black" points="761,-129 761,-152 963,-152 963,-129 761,-129"/>
<text text-anchor="start" x="833" y="-136.8" font-family="arial" font-size="14.00">Tinymovr</text>
<polygon fill="none" stroke="black" points="761,-106 761,-129 884,-129 884,-106 761,-106"/>
<text text-anchor="start" x="765" y="-113.8" font-family="arial" font-size="14.00">Hirose DF13C&#45;4P</text>
<polygon fill="none" stroke="black" points="884,-106 884,-129 923,-129 923,-106 884,-106"/>
<text text-anchor="start" x="888" y="-113.8" font-family="arial" font-size="14.00">male</text>
<polygon fill="none" stroke="black" points="923,-106 923,-129 963,-129 963,-106 923,-106"/>
<text text-anchor="start" x="927" y="-113.8" font-family="arial" font-size="14.00">4&#45;pin</text>
<polygon fill="none" stroke="black" points="761,-83 761,-106 847,-106 847,-83 761,-83"/>
<text text-anchor="start" x="799.5" y="-90.8" font-family="arial" font-size="14.00">1</text>
<polygon fill="none" stroke="black" points="847,-83 847,-106 963,-106 963,-83 847,-83"/>
<text text-anchor="start" x="889" y="-90.8" font-family="arial" font-size="14.00">GND</text>
<polygon fill="none" stroke="black" points="761,-60 761,-83 847,-83 847,-60 761,-60"/>
<text text-anchor="start" x="799.5" y="-67.8" font-family="arial" font-size="14.00">2</text>
<polygon fill="none" stroke="black" points="847,-60 847,-83 963,-83 963,-60 847,-60"/>
<text text-anchor="start" x="891.5" y="-67.8" font-family="arial" font-size="14.00">DIO</text>
<polygon fill="none" stroke="black" points="761,-37 761,-60 847,-60 847,-37 761,-37"/>
<text text-anchor="start" x="799.5" y="-44.8" font-family="arial" font-size="14.00">3</text>
<polygon fill="none" stroke="black" points="847,-37 847,-60 963,-60 963,-37 847,-37"/>
<text text-anchor="start" x="885.5" y="-44.8" font-family="arial" font-size="14.00">SCLK</text>
<polygon fill="none" stroke="black" points="761,-14 761,-37 847,-37 847,-14 761,-14"/>
<text text-anchor="start" x="799.5" y="-21.8" font-family="arial" font-size="14.00">4</text>
<polygon fill="none" stroke="black" points="847,-14 847,-37 963,-37 963,-14 847,-14"/>
<text text-anchor="start" x="886.5" y="-21.8" font-family="arial" font-size="14.00">VTref</text>
</g>
<!-- W1&#45;&#45;Tinymovr -->
<g id="edge2" class="edge">
<title>W1:e&#45;&#45;Tinymovr:w</title>
<path fill="none" stroke="#000000" stroke-width="2" d="M617,-95C680.76,-95.02 696.75,-93.02 761,-93"/>
<path fill="none" stroke="#ffffff" stroke-width="2" d="M617,-97C681.01,-97 696.99,-95 761,-95"/>
<path fill="none" stroke="#000000" stroke-width="2" d="M617,-99C681.25,-98.98 697.24,-96.98 761,-97"/>
</g>
<!-- W1&#45;&#45;Tinymovr -->
<g id="edge4" class="edge">
<title>W1:e&#45;&#45;Tinymovr:w</title>
<path fill="none" stroke="#000000" stroke-width="2" d="M617,-70C680.88,-70 696.87,-69 761,-69"/>
<path fill="none" stroke="#895956" stroke-width="2" d="M617,-72C681,-72 697,-71 761,-71"/>
<path fill="none" stroke="#000000" stroke-width="2" d="M617,-74C681.13,-74 697.12,-73 761,-73"/>
</g>
<!-- W1&#45;&#45;Tinymovr -->
<g id="edge6" class="edge">
<title>W1:e&#45;&#45;Tinymovr:w</title>
<path fill="none" stroke="#000000" stroke-width="2" d="M617,-45C681.13,-45 697.12,-46 761,-46"/>
<path fill="none" stroke="#00ff00" stroke-width="2" d="M617,-47C681,-47 697,-48 761,-48"/>
<path fill="none" stroke="#000000" stroke-width="2" d="M617,-49C680.88,-49 696.87,-50 761,-50"/>
</g>
<!-- W1&#45;&#45;Tinymovr -->
<g id="edge8" class="edge">
<title>W1:e&#45;&#45;Tinymovr:w</title>
<path fill="none" stroke="#000000" stroke-width="2" d="M617,-20C681.38,-20.03 697.36,-23.03 761,-23"/>
<path fill="none" stroke="#ffff00" stroke-width="2" d="M617,-22C681.01,-22 696.99,-25 761,-25"/>
<path fill="none" stroke="#000000" stroke-width="2" d="M617,-24C680.64,-23.97 696.62,-26.97 761,-27"/>
</g>
</g>
</svg>
