<?xml version="1.0" encoding="UTF-8" standalone="no"?>
<!DOCTYPE svg PUBLIC "-//W3C//DTD SVG 1.1//EN"
 "http://www.w3.org/Graphics/SVG/1.1/DTD/svg11.dtd">
<!-- Generated by graphviz version 2.40.1 (20161225.0304)
 -->
<!-- Title: %3 Pages: 1 -->
<svg width="944pt" height="192pt"
 viewBox="0.00 0.00 944.00 192.00" xmlns="http://www.w3.org/2000/svg" xmlns:xlink="http://www.w3.org/1999/xlink">
<g id="graph0" class="graph" transform="scale(1 1) rotate(0) translate(4 188)">
<title>%3</title>
<polygon fill="#ffffff" stroke="transparent" points="-4,4 -4,-188 940,-188 940,4 -4,4"/>
<!-- SWD -->
<g id="node1" class="node">
<title>SWD</title>
<polygon fill="#ffffff" stroke="#000000" points="193,-152 0,-152 0,-14 193,-14 193,-152"/>
<polygon fill="none" stroke="#000000" points=".5,-129 .5,-152 193.5,-152 193.5,-129 .5,-129"/>
<text text-anchor="start" x="80" y="-136.8" font-family="arial" font-size="14.00" fill="#000000">SWD</text>
<polygon fill="none" stroke="#000000" points=".5,-106 .5,-129 112.5,-129 112.5,-106 .5,-106"/>
<text text-anchor="start" x="4.5" y="-113.8" font-family="arial" font-size="14.00" fill="#000000">Dupont 2.54mm</text>
<polygon fill="none" stroke="#000000" points="112.5,-106 112.5,-129 152.5,-129 152.5,-106 112.5,-106"/>
<text text-anchor="start" x="116.5" y="-113.8" font-family="arial" font-size="14.00" fill="#000000">male</text>
<polygon fill="none" stroke="#000000" points="152.5,-106 152.5,-129 193.5,-129 193.5,-106 152.5,-106"/>
<text text-anchor="start" x="156.5" y="-113.8" font-family="arial" font-size="14.00" fill="#000000">4&#45;pin</text>
<polygon fill="none" stroke="#000000" points=".5,-83 .5,-106 112.5,-106 112.5,-83 .5,-83"/>
<text text-anchor="start" x="40" y="-90.8" font-family="arial" font-size="14.00" fill="#000000">GND</text>
<polygon fill="none" stroke="#000000" points="112.5,-83 112.5,-106 193.5,-106 193.5,-83 112.5,-83"/>
<text text-anchor="start" x="148.5" y="-90.8" font-family="arial" font-size="14.00" fill="#000000">1</text>
<polygon fill="none" stroke="#000000" points=".5,-60 .5,-83 112.5,-83 112.5,-60 .5,-60"/>
<text text-anchor="start" x="37" y="-67.8" font-family="arial" font-size="14.00" fill="#000000">SCLK</text>
<polygon fill="none" stroke="#000000" points="112.5,-60 112.5,-83 193.5,-83 193.5,-60 112.5,-60"/>
<text text-anchor="start" x="148.5" y="-67.8" font-family="arial" font-size="14.00" fill="#000000">2</text>
<polygon fill="none" stroke="#000000" points=".5,-37 .5,-60 112.5,-60 112.5,-37 .5,-37"/>
<text text-anchor="start" x="43.5" y="-44.8" font-family="arial" font-size="14.00" fill="#000000">DIO</text>
<polygon fill="none" stroke="#000000" points="112.5,-37 112.5,-60 193.5,-60 193.5,-37 112.5,-37"/>
<text text-anchor="start" x="148.5" y="-44.8" font-family="arial" font-size="14.00" fill="#000000">3</text>
<polygon fill="none" stroke="#000000" points=".5,-14 .5,-37 112.5,-37 112.5,-14 .5,-14"/>
<text text-anchor="start" x="39" y="-21.8" font-family="arial" font-size="14.00" fill="#000000">VTref</text>
<polygon fill="none" stroke="#000000" points="112.5,-14 112.5,-37 193.5,-37 193.5,-14 112.5,-14"/>
<text text-anchor="start" x="148.5" y="-21.8" font-family="arial" font-size="14.00" fill="#000000">4</text>
</g>
<!-- W1 -->
<g id="node3" class="node">
<title>W1</title>
<polygon fill="#ffffff" stroke="#000000" points="621,-184 337,-184 337,0 621,0 621,-184"/>
<polygon fill="none" stroke="#000000" points="337,-161 337,-184 621,-184 621,-161 337,-161"/>
<text text-anchor="start" x="468" y="-168.8" font-family="arial" font-size="14.00" fill="#000000">W1</text>
<polygon fill="none" stroke="#000000" points="337,-138 337,-161 410,-161 410,-138 337,-138"/>
<text text-anchor="start" x="365.5" y="-145.8" font-family="arial" font-size="14.00" fill="#000000">4x</text>
<polygon fill="none" stroke="#000000" points="410,-138 410,-161 528,-161 528,-138 410,-138"/>
<text text-anchor="start" x="438.5" y="-145.8" font-family="arial" font-size="14.00" fill="#000000">0.25 mm²</text>
<polygon fill="none" stroke="#000000" points="528,-138 528,-161 621,-161 621,-138 528,-138"/>
<text text-anchor="start" x="556" y="-145.8" font-family="arial" font-size="14.00" fill="#000000">0.2 m</text>
<text text-anchor="start" x="381" y="-124.8" font-family="arial" font-size="14.00" fill="#000000"> </text>
<text text-anchor="start" x="342" y="-105.8" font-family="arial" font-size="14.00" fill="#000000">SWD:1:GND</text>
<text text-anchor="start" x="431" y="-105.8" font-family="arial" font-size="14.00" fill="#000000"> &#160;&#160;&#160;&#160;1:WH &#160;&#160;&#160;</text>
<text text-anchor="start" x="508" y="-105.8" font-family="arial" font-size="14.00" fill="#000000">Tinymovr:1:GND</text>
<polygon fill="#000000" stroke="transparent" points="337,-98 337,-100 621,-100 621,-98 337,-98"/>
<polygon fill="#ffffff" stroke="transparent" points="337,-96 337,-98 621,-98 621,-96 337,-96"/>
<polygon fill="#000000" stroke="transparent" points="337,-94 337,-96 621,-96 621,-94 337,-94"/>
<text text-anchor="start" x="345" y="-80.8" font-family="arial" font-size="14.00" fill="#000000">SWD:3:DIO</text>
<text text-anchor="start" x="432.5" y="-80.8" font-family="arial" font-size="14.00" fill="#000000"> &#160;&#160;&#160;&#160;2:BN &#160;&#160;&#160;</text>
<text text-anchor="start" x="511.5" y="-80.8" font-family="arial" font-size="14.00" fill="#000000">Tinymovr:2:DIO</text>
<polygon fill="#000000" stroke="transparent" points="337,-73 337,-75 621,-75 621,-73 337,-73"/>
<polygon fill="#895956" stroke="transparent" points="337,-71 337,-73 621,-73 621,-71 337,-71"/>
<polygon fill="#000000" stroke="transparent" points="337,-69 337,-71 621,-71 621,-69 337,-69"/>
<text text-anchor="start" x="339" y="-55.8" font-family="arial" font-size="14.00" fill="#000000">SWD:2:SCLK</text>
<text text-anchor="start" x="432" y="-55.8" font-family="arial" font-size="14.00" fill="#000000"> &#160;&#160;&#160;&#160;3:GN &#160;&#160;&#160;</text>
<text text-anchor="start" x="505" y="-55.8" font-family="arial" font-size="14.00" fill="#000000">Tinymovr:3:SCLK</text>
<polygon fill="#000000" stroke="transparent" points="337,-48 337,-50 621,-50 621,-48 337,-48"/>
<polygon fill="#00ff00" stroke="transparent" points="337,-46 337,-48 621,-48 621,-46 337,-46"/>
<polygon fill="#000000" stroke="transparent" points="337,-44 337,-46 621,-46 621,-44 337,-44"/>
<text text-anchor="start" x="340.5" y="-30.8" font-family="arial" font-size="14.00" fill="#000000">SWD:4:VTref</text>
<text text-anchor="start" x="433" y="-30.8" font-family="arial" font-size="14.00" fill="#000000"> &#160;&#160;&#160;&#160;4:YE &#160;&#160;&#160;</text>
<text text-anchor="start" x="507" y="-30.8" font-family="arial" font-size="14.00" fill="#000000">Tinymovr:4:VTref</text>
<polygon fill="#000000" stroke="transparent" points="337,-23 337,-25 621,-25 621,-23 337,-23"/>
<polygon fill="#ffff00" stroke="transparent" points="337,-21 337,-23 621,-23 621,-21 337,-21"/>
<polygon fill="#000000" stroke="transparent" points="337,-19 337,-21 621,-21 621,-19 337,-19"/>
<text text-anchor="start" x="381" y="-5.8" font-family="arial" font-size="14.00" fill="#000000"> </text>
</g>
<!-- SWD&#45;&#45;W1 -->
<g id="edge1" class="edge">
<title>SWD:e&#45;&#45;W1:w</title>
<path fill="none" stroke="#000000" stroke-width="2" d="M193,-93C257.2544,-93.0155 273.2421,-95.0155 337,-95"/>
<path fill="none" stroke="#ffffff" stroke-width="2" d="M193,-95C257.0062,-95 272.9938,-97 337,-97"/>
<path fill="none" stroke="#000000" stroke-width="2" d="M193,-97C256.7579,-96.9845 272.7456,-98.9845 337,-99"/>
</g>
<!-- SWD&#45;&#45;W1 -->
<g id="edge3" class="edge">
<title>SWD:e&#45;&#45;W1:w</title>
<path fill="none" stroke="#000000" stroke-width="2" d="M193,-46C259.603,-46.9797 273.8374,-70.9797 337,-70"/>
<path fill="none" stroke="#895956" stroke-width="2" d="M193,-48C257.8828,-48 272.1172,-72 337,-72"/>
<path fill="none" stroke="#000000" stroke-width="2" d="M193,-50C256.1626,-49.0203 270.397,-73.0203 337,-74"/>
</g>
<!-- SWD&#45;&#45;W1 -->
<g id="edge5" class="edge">
<title>SWD:e&#45;&#45;W1:w</title>
<path fill="none" stroke="#000000" stroke-width="2" d="M193,-69C256.1626,-69.9797 270.397,-45.9797 337,-45"/>
<path fill="none" stroke="#00ff00" stroke-width="2" d="M193,-71C257.8828,-71 272.1172,-47 337,-47"/>
<path fill="none" stroke="#000000" stroke-width="2" d="M193,-73C259.603,-72.0203 273.8374,-48.0203 337,-49"/>
</g>
<!-- SWD&#45;&#45;W1 -->
<g id="edge7" class="edge">
<title>SWD:e&#45;&#45;W1:w</title>
<path fill="none" stroke="#000000" stroke-width="2" d="M193,-23C256.6447,-23.0344 272.6169,-20.0344 337,-20"/>
<path fill="none" stroke="#ffff00" stroke-width="2" d="M193,-25C257.0139,-25 272.9861,-22 337,-22"/>
<path fill="none" stroke="#000000" stroke-width="2" d="M193,-27C257.3831,-26.9656 273.3553,-23.9656 337,-24"/>
</g>
<!-- Tinymovr -->
<g id="node2" class="node">
<title>Tinymovr</title>
<polygon fill="#ffffff" stroke="#000000" points="936,-152 765,-152 765,-14 936,-14 936,-152"/>
<polygon fill="none" stroke="#000000" points="765.5,-129 765.5,-152 936.5,-152 936.5,-129 765.5,-129"/>
<text text-anchor="start" x="821" y="-136.8" font-family="arial" font-size="14.00" fill="#000000">Tinymovr</text>
<polygon fill="none" stroke="#000000" points="765.5,-106 765.5,-129 855.5,-129 855.5,-106 765.5,-106"/>
<text text-anchor="start" x="769.5" y="-113.8" font-family="arial" font-size="14.00" fill="#000000">JST&#45;SH 4pin</text>
<polygon fill="none" stroke="#000000" points="855.5,-106 855.5,-129 895.5,-129 895.5,-106 855.5,-106"/>
<text text-anchor="start" x="859.5" y="-113.8" font-family="arial" font-size="14.00" fill="#000000">male</text>
<polygon fill="none" stroke="#000000" points="895.5,-106 895.5,-129 936.5,-129 936.5,-106 895.5,-106"/>
<text text-anchor="start" x="899.5" y="-113.8" font-family="arial" font-size="14.00" fill="#000000">4&#45;pin</text>
<polygon fill="none" stroke="#000000" points="765.5,-83 765.5,-106 836.5,-106 836.5,-83 765.5,-83"/>
<text text-anchor="start" x="796.5" y="-90.8" font-family="arial" font-size="14.00" fill="#000000">1</text>
<polygon fill="none" stroke="#000000" points="836.5,-83 836.5,-106 936.5,-106 936.5,-83 836.5,-83"/>
<text text-anchor="start" x="870" y="-90.8" font-family="arial" font-size="14.00" fill="#000000">GND</text>
<polygon fill="none" stroke="#000000" points="765.5,-60 765.5,-83 836.5,-83 836.5,-60 765.5,-60"/>
<text text-anchor="start" x="796.5" y="-67.8" font-family="arial" font-size="14.00" fill="#000000">2</text>
<polygon fill="none" stroke="#000000" points="836.5,-60 836.5,-83 936.5,-83 936.5,-60 836.5,-60"/>
<text text-anchor="start" x="873.5" y="-67.8" font-family="arial" font-size="14.00" fill="#000000">DIO</text>
<polygon fill="none" stroke="#000000" points="765.5,-37 765.5,-60 836.5,-60 836.5,-37 765.5,-37"/>
<text text-anchor="start" x="796.5" y="-44.8" font-family="arial" font-size="14.00" fill="#000000">3</text>
<polygon fill="none" stroke="#000000" points="836.5,-37 836.5,-60 936.5,-60 936.5,-37 836.5,-37"/>
<text text-anchor="start" x="867" y="-44.8" font-family="arial" font-size="14.00" fill="#000000">SCLK</text>
<polygon fill="none" stroke="#000000" points="765.5,-14 765.5,-37 836.5,-37 836.5,-14 765.5,-14"/>
<text text-anchor="start" x="796.5" y="-21.8" font-family="arial" font-size="14.00" fill="#000000">4</text>
<polygon fill="none" stroke="#000000" points="836.5,-14 836.5,-37 936.5,-37 936.5,-14 836.5,-14"/>
<text text-anchor="start" x="869" y="-21.8" font-family="arial" font-size="14.00" fill="#000000">VTref</text>
</g>
<!-- W1&#45;&#45;Tinymovr -->
<g id="edge2" class="edge">
<title>W1:e&#45;&#45;Tinymovr:w</title>
<path fill="none" stroke="#000000" stroke-width="2" d="M621,-95C684.981,-95.0154 701.0242,-93.0154 765.5,-93"/>
<path fill="none" stroke="#ffffff" stroke-width="2" d="M621,-97C685.2284,-97 701.2716,-95 765.5,-95"/>
<path fill="none" stroke="#000000" stroke-width="2" d="M621,-99C685.4758,-98.9846 701.519,-96.9846 765.5,-97"/>
</g>
<!-- W1&#45;&#45;Tinymovr -->
<g id="edge4" class="edge">
<title>W1:e&#45;&#45;Tinymovr:w</title>
<path fill="none" stroke="#000000" stroke-width="2" d="M621,-70C685.0994,-70.0039 701.1519,-69.0039 765.5,-69"/>
<path fill="none" stroke="#895956" stroke-width="2" d="M621,-72C685.2238,-72 701.2762,-71 765.5,-71"/>
<path fill="none" stroke="#000000" stroke-width="2" d="M621,-74C685.3481,-73.9961 701.4006,-72.9961 765.5,-73"/>
</g>
<!-- W1&#45;&#45;Tinymovr -->
<g id="edge6" class="edge">
<title>W1:e&#45;&#45;Tinymovr:w</title>
<path fill="none" stroke="#000000" stroke-width="2" d="M621,-45C685.3481,-45.0039 701.4006,-46.0039 765.5,-46"/>
<path fill="none" stroke="#00ff00" stroke-width="2" d="M621,-47C685.2238,-47 701.2762,-48 765.5,-48"/>
<path fill="none" stroke="#000000" stroke-width="2" d="M621,-49C685.0994,-48.9961 701.1519,-49.9961 765.5,-50"/>
</g>
<!-- W1&#45;&#45;Tinymovr -->
<g id="edge8" class="edge">
<title>W1:e&#45;&#45;Tinymovr:w</title>
<path fill="none" stroke="#000000" stroke-width="2" d="M621,-20C685.604,-20.0341 701.6319,-23.0341 765.5,-23"/>
<path fill="none" stroke="#ffff00" stroke-width="2" d="M621,-22C685.2361,-22 701.2639,-25 765.5,-25"/>
<path fill="none" stroke="#000000" stroke-width="2" d="M621,-24C684.8681,-23.9659 700.896,-26.9659 765.5,-27"/>
</g>
</g>
</svg>
